<?xml version="1.0" encoding="UTF-8"?>
<svg xmlns="http://www.w3.org/2000/svg" version="1.2" viewBox="0 0 914 645" width="914" height="645">
  <title>Layer 8</title>
  <style>
		tspan { white-space:pre } 
		.s0 { fill: none;stroke: #5cb94d;stroke-width: 16 } 
		.s1 { fill: #ffffff } 
		.s2 { fill: #ffffff;stroke: #5cb94d;stroke-width: 2 } 
		.s3 { fill: none;stroke: #5cb94d;stroke-width: 10 } 
		.s4 { fill: #5cb94d;stroke: #5cb94d;stroke-width: 2 } 
		.s5 { fill: none;stroke: #fefefe;stroke-width: 4 } 
		.s6 { fill: #5cb94d;stroke: #212628;stroke-width: 2 } 
		.t7 { font-size: 21px;fill: #2c2e35;font-family: "Myriad Pro" } 
	</style>
  <g id="Layer 2">
    <path id="&lt;Path&gt;" class="s0" d="m390 21c-203.5-52.5-320 109-323 109.5-125 189-8.5 353.5 27 386.5 181 155.5 323.5 68 323.5 68"></path>
    <g id="&lt;Group&gt;">
      <path id="&lt;Compound Path&gt;" fill-rule="evenodd" class="s1" d="m266 197.3c-2.5 2.2-5 3.8-5 7.4 0 3.6 3.1 4.7 5.8 6.1 11.3 4.4 31 19 31 42.2 0.1 27.6-18.3 61.5-73.8 61.7-9.4 0-18-0.3-26.2-0.8-8.3-0.3-16.6-0.5-25.1-0.5-9.4 0-19.1 0.3-28.5 0.6-9.4 0.6-18.7 0.9-28.4 0.9-8.6 0-18.2-4.9-18.2-14.6-0.1-17.1 17.9 0.2 19.4-45.6l2.9-79.5c1.6-41.7-22.1-22.6-22.2-41.6 0-10.5 11.3-15.5 19.9-15.5 10.2 0 20.4 0.5 30.6 0.8 10.2 0.5 20.4 1 30.7 1 6.6 0 12.9-0.6 19.3-1.1 6.3-0.3 12.9-0.9 19.3-0.9 50.5-0.1 63.5 23.9 63.6 45.1 0 12.7-5.2 26.2-15.1 34.3zm-80.4-12c0 10.8-0.5 16 8.1 16 16.5 0 20.4-11.6 20.3-26.8 0-12.4-4.2-27.9-19.4-27.9-10.2 0.1-9 8.3-9 16.3zm0.1 67.4c0.1 32 5.3 32.8 13.9 32.8 15.7 0 21.2-10.8 21.2-25.2 0-16.8-5-31.7-24.4-31.6-8.5 0-10.4 4.4-10.7 10.2z"></path>
      <path id="&lt;Compound Path&gt;" class="s1" d="m416.7 119.9c37 0 42.2-5.6 46.6-5.6 15.8 0 22.4 27.1 22.4 39.2 0 9.1-3.6 19.9-14.3 19.9-21.9 0-4.2-26.5-56.6-26.5-30.7 0-27.6 5.5-27.6 37.3 0 16 0.8 16.5 17.6 16.5 21 0 5.3-30.6 24.9-30.6 16 0 17.1 31.2 17.1 41.9 0 11.4-1.9 44.5-18.5 44.5-17.1 0 0-29-27.9-29-11.6 0-11.3 10.5-11.3 19.3 0 40.3 2.8 38.4 31.7 38.4 56.6 0 40.6-38.9 63.2-38.9 8.9 0 13.3 9.9 13.3 17.6 0 18.8-14.9 52.5-25.9 52.5-2 0-6.4-0.9-12.2-1.7-6.1-0.5-13.8-1.4-23.2-1.4h-113.4c-18.2 0-18.5-8.2-18.5-11.8 0-15.2 18.8-3.1 20.7-32.3 3.3-50.3 3.6-45.3 0.8-95.2-1.9-42.3-22.9-20.5-22.9-40.1 0-16.8 23.2-14 34.5-14z"></path>
    </g>
    <g id="&lt;Group&gt;">
      <path id="&lt;Compound Path&gt;" class="s2" d="m534.5 180.1c0-28.7 27.6-64.3 81.2-64.3 17.6 0 37.5 8 41.6 8 3.9 0 7.8-3.3 13.6-3.3 9.3 0 30.3 20.5 30.3 43.6 0 9.4-6.1 18.8-16.3 18.8-18.5 0-29.2-31.5-57.9-31.5-8.6 0-17.7 3.9-17.7 13.8 0 21.8 37.8 16.1 69.8 37.3 17.2 11.3 25.7 25.1 25.7 45.8 0 32.3-26.5 68.7-90.8 68.7-18.2 0-49.4-4.6-65.1-13.2-13.3-7.5-19.6-36.7-19.6-50.8 0-7.4 3.3-14.9 11.6-14.9 19.6 0 16.2 43.9 67 43.9 6.1 0 21.3-3 21.3-13.5 0-19.9-37.8-14.9-68.5-39.5-15.1-12.1-26.2-29-26.2-48.9z"></path>
      <path id="&lt;Compound Path&gt;" class="s2" d="m845.3 119.7c11.9 0 17.4-1.1 21.5-1.9 3.9-1.1 6.1-2 11.3-2 10.8 0 33.2 21.3 33.2 51.1 0 13.8-7.2 22.9-21.3 22.9-24 0-23.7-32.6-37.8-32.6-10.8 0-9.7 14.9-9.7 17.2v84.7c0 32.8 25.4 17.1 25.4 36.4 0 8.6-5.2 20.7-56.8 20.7-14.1 0-65.7 0.6-65.7-20.7 0-14.6 17.1-8.8 22.6-19.3 2.8-5.8 3.9-22.4 4.2-29.3l2.2-61c1.1-28.9-4.7-28.7-8.6-28.7-12.4 0-18.5 32.6-40.8 32.6-10.8 0-17.2-9.9-17.2-19.9 0-23.4 19.9-54.1 35.6-54.1 2 0 5 0.9 10.3 2 5.2 0.8 12.7 1.9 23.7 1.9z"></path>
    </g>
    <path id="&lt;Path&gt;" class="s0" d="m390 21c105 43.5 143.6 90.5 379.1 38.7"></path>
    <path id="&lt;Path&gt;" class="s3" d="m619.1 81.4c-38.1 6.9-55.1-30-99.8 49.7"></path>
  </g>
  <g id="Layer 3">
    <path id="&lt;Path&gt;" class="s4" d="m409.5 581.9c0 0 24.2-9.3 37.5-18.7 10.7-7.5 40.6-88.9 115.2-103.6 74.5-14.8 140.3 13.8 195.7 34.6 55.5 20.7 46.8 22 46.8 22 0 0-34.9-1.9-109.1 62-74.1 64-74.8 53.4-95 61.2-117.8 17.2-153.9-42.6-153.9-42.6 0 0-43.4 2.2-46.4 2.4-3 0.3 9.2-17.3 9.2-17.3z"></path>
    <path id="&lt;Path&gt;" class="s4" d="m551.1 88.7c0 0-3.2 5.8-4.2 9.9-0.8 3.2 6.9 23.8-5 39-11.9 15.2-29.4 20.6-43.5 25.8-14.2 5.2-12.7 3.5-12.7 3.5 0 0 7.1-5.4 10.8-30 3.7-24.7 5.5-22.7 8.2-27.6 19.9-22.8 36.7-17.3 36.7-17.3 0 0 8-7.6 8.6-8.1 0.5-0.6 1.1 4.8 1.1 4.8z"></path>
  </g>
  <g id="Layer 4">
    <path id="&lt;Path&gt;" class="s5" d="m468.1 584c37.2-49.9 14.6-51 105.1-93.2 40.1-14.1 161.4 17.6 161.4 17.6 0 0-6.9 6.7 22.2 7.7 29.1 0.9 25.6-4.4 25.6-4.4"></path>
    <path id="&lt;Path&gt;" class="s5" d="m541 102.2c-9.5 2.4-7.1-1.5-21.7 10.5-5.9 5.7-15.9 28.5-15.9 28.5 0 0 1.5-0.6-1.6 4.4-3.1 5-3.3 4-3.3 4"></path>
  </g>
  <g id="Layer 5">
	</g>
  <g id="Layer 7">
    <g id="&lt;Group&gt;">
      <path id="&lt;Compound Path&gt;" class="s6" d="m110.8 336.7c0-7.8 7.5-17.6 22.2-17.6 4.8 0 10.2 2.2 11.4 2.2 1 0 2.1-0.9 3.7-0.9 2.5 0 8.3 5.6 8.3 11.9 0 2.6-1.7 5.2-4.5 5.2-5 0-8-8.6-15.8-8.6-2.4 0-4.9 1-4.9 3.7 0 6 10.4 4.4 19.1 10.2 4.7 3.1 7.1 6.9 7.1 12.6 0 8.8-7.3 18.8-24.9 18.8-5 0-13.5-1.3-17.8-3.7-3.6-2-5.4-10-5.4-13.8 0-2.1 1-4.1 3.2-4.1 5.4 0 4.5 12 18.4 12 1.6 0 5.8-0.8 5.8-3.7 0-5.5-10.4-4.1-18.7-10.8-4.2-3.3-7.2-7.9-7.2-13.4z"></path>
      <path id="&lt;Compound Path&gt;" class="s6" d="m201.3 337.6c0-7.2-5.8-4.5-5.8-8.4 0-4.2 7.8-4 10.6-4 2.5 0 9.9 0 9.9 3.9 0 3.8-5 1.5-5 7.6v18.2c0 3 0.1 19.2-23.2 19.2-26.6 0-23.6-20.5-23.6-21.3v-15.6c0.3-4.2-4.3-4.2-4.3-7.3 0-1-0.7-4.7 13.1-4.7 11 0 13.2 2 13.2 4.6 0 4.9-4.9 0.4-5.2 8.6v12.4c0 8 3 13.1 10.1 13.1 10.7 0 10.2-8.8 10.2-9.6z"></path>
      <path id="&lt;Compound Path&gt;" class="s6" d="m219.7 340.7c0-7 6.7-15.7 19.8-15.7 4.3 0 9.1 1.9 10.1 1.9 1 0 1.9-0.8 3.3-0.8 2.3 0 7.4 5 7.4 10.7 0 2.2-1.4 4.5-3.9 4.5-4.5 0-7.2-7.6-14.2-7.6-2.1 0-4.3 0.9-4.3 3.3 0 5.3 9.3 3.9 17.1 9.1 4.1 2.8 6.2 6.1 6.2 11.2 0 7.9-6.4 16.8-22.1 16.8-4.5 0-12.1-1.2-15.9-3.3-3.2-1.8-4.8-8.9-4.8-12.4 0-1.8 0.8-3.6 2.8-3.6 4.8 0 4 10.7 16.4 10.7 1.5 0 5.2-0.7 5.2-3.3 0-4.8-9.2-3.6-16.7-9.6-3.7-3-6.4-7.1-6.4-11.9z"></path>
      <path id="&lt;Compound Path&gt;" class="s6" d="m296.2 325.9c2.9 0 4.2-0.2 5.2-0.5 1-0.2 1.5-0.4 2.8-0.4 2.6 0 8.1 5.2 8.1 12.4 0 3.4-1.8 5.6-5.2 5.6-5.9 0-5.8-7.9-9.2-7.9-2.7 0-2.4 3.6-2.4 4.1v20.7c0 8 6.2 4.2 6.2 8.9 0 2.1-1.3 5.1-13.9 5.1-3.4 0-16 0.1-16-5.1 0-3.6 4.2-2.1 5.5-4.7 0.7-1.4 1-5.5 1-7.1l0.6-14.9c0.2-7.1-1.2-7-2.1-7-3 0-4.5 7.9-10 7.9-2.6 0-4.2-2.4-4.2-4.8 0-5.7 4.9-13.2 8.7-13.2 0.5 0 1.2 0.2 2.5 0.4 1.3 0.3 3.1 0.5 5.8 0.5z"></path>
      <path id="&lt;Compound Path&gt;" fill-rule="evenodd" class="s6" d="m320.7 348.8c2.1-4.6 4.8-10.6 4.8-15.9 0-4.6 2.2-8.1 8.2-8.1 5.8 0 9.5 6 12.2 10.4 1.1 2 11.3 22.6 13.7 28.1 2.2 5.1 5.9 2 5.9 5.8 0 5-9.6 4.8-13 4.8-9.6 0-15.4-0.1-15.4-4.3 0-3.2 4.1-2 4.1-4.4 0-3-1.7-3.3-12.5-3.3-3.5 0-5.6 0.2-5.6 3.5 0 2.6 4.3 0.8 4.3 4.3 0 4.1-7.3 4.2-9.9 4.2-9.7 0-10.6-1.9-10.6-4 0-3.2 3.7-2.2 5.6-4.7 1.5-1.8 2.9-5 3.9-7.2zm14.2 4.9c0.7 0 2.7 0.1 2.7-0.9 0-1-2-4.5-2.5-5.4-0.6-1.1-1.8-3.6-3.3-3.6-1.6 0-2.7 4-3 4.8-0.3 0.7-1.4 3.3-1.4 4.1 0 1.2 1.7 1 2.4 1z"></path>
      <path id="&lt;Compound Path&gt;" class="s6" d="m372 346.2c0-8.6-0.7-10.5-1.4-11.5-1.6-1.9-4.2-2.1-4.2-4.7 0-4.8 13.7-4.8 15.1-4.8 4 0 12.3 0.1 12.3 4.7 0 2.4-2.6 2.3-4.1 4-1.3 1.5-1.3 7.6-1.3 12.3v6.6c0 12 0.8 11.8 2.1 12.6 1.7 1 3.3 1.3 3.3 3.4 0 2-0.6 5.1-15.3 5.1-2.9 0-11.4-0.1-11.4-4.4 0-2.2 2.3-2.5 3.4-3.8 0.8-0.9 1.5-3.4 1.5-12.9z"></path>
      <path id="&lt;Compound Path&gt;" class="s6" d="m431.7 342.1c0.8 0.7 3 2.7 4.2 2.7 1.7 0 1.7-2.8 1.7-3.9 0-1.7 0-4.6-0.6-6.2-0.9-2.8-4.5-1.8-4.5-5.4 0-4.3 6.9-4.1 9.7-4.1 3 0 10.3-0.4 10.3 4.3 0 3.8-3.6 2.4-4.7 5.5-0.9 2.4-0.9 6.6-0.9 9.2v17.4c0 3 0.4 12.3-4.1 12.3-1.3 0-2.5-0.9-3.5-1.7l-20.8-18.7c-0.9-0.9-2.7-2.5-4.1-2.5-2.1 0-2.1 4.4-2.1 5.8 0 1.9 0 4.4 0.4 6.1 1 4.4 4.6 2.7 4.6 6 0 4.5-6.9 5-10.1 5-3.1 0-10-0.5-10-4.8 0-3.6 3.9-2.2 4.6-6.5 0.4-2.9 0.6-7.1 0.6-10.2 0-4.8 0-9.7-0.8-14.6-1.1-6.7-5.9-4.1-5.9-8.1 0-4.8 9.1-4.5 12.1-4.5 4.2 0 4.9 0.2 8 2.9z"></path>
      <path id="&lt;Compound Path&gt;" fill-rule="evenodd" class="s6" d="m467.3 348.8c2.1-4.6 4.8-10.6 4.8-15.9 0-4.6 2.2-8.1 8.2-8.1 5.8 0 9.5 6 12.1 10.4 1.2 2 11.4 22.6 13.8 28.1 2.2 5.1 5.8 2 5.8 5.8 0 5-9.5 4.8-12.9 4.8-9.6 0-15.4-0.1-15.4-4.3 0-3.2 4.1-2 4.1-4.4 0-3-1.7-3.3-12.5-3.3-3.5 0-5.6 0.2-5.6 3.5 0 2.6 4.3 0.8 4.3 4.3 0 4.1-7.3 4.2-10 4.2-9.6 0-10.5-1.9-10.5-4 0-3.2 3.7-2.2 5.6-4.7 1.5-1.8 2.9-5 3.9-7.2zm14.2 4.9c0.6 0 2.7 0.1 2.7-0.9 0-1-2-4.5-2.5-5.4-0.6-1.1-1.8-3.6-3.3-3.6-1.6 0-2.7 4-3 4.8-0.3 0.7-1.4 3.3-1.4 4.1 0 1.2 1.7 1 2.4 1z"></path>
      <path id="&lt;Compound Path&gt;" fill-rule="evenodd" class="s6" d="m554.1 344.8c-0.6 0.6-1.2 1-1.2 1.9 0 0.8 0.8 1.1 1.4 1.4 2.8 1.1 7.6 4.7 7.6 10.3 0 6.8-4.5 15-18.1 15-2.3 0-4.4 0-6.4-0.2-2 0-4-0.1-6.1-0.1-2.3 0-4.6 0.1-6.9 0.1-2.3 0.2-4.6 0.2-7 0.2-2.1 0-4.4-1.2-4.4-3.5 0-4.2 4.4 0 4.8-11.1l0.7-19.4c0.4-10.2-5.4-5.5-5.4-10.2 0-2.5 2.8-3.8 4.9-3.8 2.5 0 5 0.2 7.4 0.3 2.5 0.1 5 0.2 7.5 0.2 1.6 0 3.2-0.1 4.7-0.2 1.6-0.1 3.2-0.3 4.7-0.3 12.4 0 15.5 5.9 15.5 11.1 0 3.1-1.3 6.4-3.7 8.3zm-19.6-2.9c0 2.6-0.1 3.9 2 3.9 4 0 5-2.8 5-6.6 0-3-1-6.7-4.7-6.7-2.5 0-2.3 2-2.3 3.9zm0 16.5c0 7.8 1.3 8 3.4 8 3.8 0 5.2-2.7 5.2-6.2 0-4.1-1.2-7.7-5.9-7.7-2.1 0-2.6 1.1-2.7 2.5z"></path>
      <path id="&lt;Compound Path&gt;" class="s6" d="m570.3 373.1c-2.2 0-5.6 0.1-5.6-2.9 0-4.2 5.3-0.7 5.5-8.5 0.1-4.9 0.1-9.3 0.1-13.2 0-4.1-0.3-7.8-0.5-11.6-0.1-5.7-6-2.7-6-6.5 0-5 10.5-5.2 13.8-5.2 13.5 0.3 14.2 2.3 14.2 4.6 0 3.9-5.4 0.9-5.4 7.2v21.4c0 4.9 0.9 7.2 5.6 7.2 11.5 0 7.6-9.3 11.9-9.3 3 0 4.2 3.2 4.2 5.8 0 5.2-3.8 12-6.9 12-1.2 0-2.2-0.3-3.4-0.5-1.3-0.3-2.7-0.5-5-0.5z"></path>
      <path id="&lt;Compound Path&gt;" class="s6" d="m636.3 325.9c9.1 0 10.3-1.3 11.4-1.3 3.9 0 5.5 6.6 5.5 9.5 0 2.3-0.9 4.9-3.5 4.9-5.4 0-1-6.5-13.8-6.5-7.5 0-6.8 1.4-6.8 9.1 0 3.9 0.2 4 4.3 4 5.2 0 1.3-7.4 6.1-7.4 3.9 0 4.2 7.6 4.2 10.2 0 2.8-0.5 10.8-4.5 10.8-4.2 0 0-7-6.8-7-2.9 0-2.8 2.5-2.8 4.7 0 9.8 0.7 9.3 7.7 9.3 13.8 0 9.9-9.4 15.5-9.4 2.1 0 3.2 2.4 3.2 4.3 0 4.5-3.6 12.8-6.3 12.8-0.5 0-1.6-0.2-3-0.5-1.5-0.1-3.4-0.3-5.6-0.3h-27.7c-4.5 0-4.5-2-4.5-2.9 0-3.7 4.5-0.7 5-7.9 0.8-12.2 0.9-11 0.2-23.2-0.4-10.3-5.6-5-5.6-9.7 0-4.2 5.7-3.5 8.4-3.5z"></path>
    </g>
    <g id="&lt;Group&gt;">
      <path id="&lt;Compound Path&gt;" class="s6" d="m146.3 385.9c3.3 0 4.8-0.3 5.9-0.5 1.1-0.3 1.7-0.5 3.1-0.5 3 0 9.1 5.8 9.1 13.9 0 3.8-2 6.3-5.8 6.3-6.6 0-6.5-8.9-10.4-8.9-2.9 0-2.6 4.1-2.6 4.7v23.1c0 9 6.9 4.7 6.9 10 0 2.3-1.4 5.7-15.5 5.7-3.9 0-18 0.1-18-5.7 0-4 4.7-2.4 6.2-5.3 0.7-1.6 1-6.1 1.1-8l0.6-16.7c0.3-7.9-1.3-7.8-2.3-7.8-3.4 0-5.1 8.9-11.2 8.9-2.9 0-4.7-2.7-4.7-5.4 0-6.5 5.5-14.8 9.8-14.8 0.5 0 1.3 0.2 2.8 0.5 1.4 0.2 3.4 0.5 6.5 0.5z"></path>
      <path id="&lt;Compound Path&gt;" class="s6" d="m194 390.2c9.3 0 10.6-1.4 11.7-1.4 4 0 5.6 6.8 5.6 9.9 0 2.3-0.9 5-3.6 5-5.5 0-1-6.7-14.2-6.7-7.7 0-6.9 1.4-6.9 9.4 0 4 0.2 4.1 4.4 4.1 5.3 0 1.3-7.7 6.3-7.7 4 0 4.3 7.9 4.3 10.6 0 2.8-0.5 11.2-4.7 11.2-4.3 0 0-7.3-7-7.3-2.9 0-2.8 2.6-2.8 4.8 0 10.1 0.6 9.7 7.9 9.7 14.3 0 10.2-9.8 15.9-9.8 2.2 0 3.3 2.5 3.3 4.4 0 4.7-3.7 13.2-6.5 13.2-0.5 0-1.6-0.2-3-0.4-1.6-0.2-3.5-0.4-5.9-0.4h-28.5c-4.5 0-4.6-2-4.6-2.9 0-3.9 4.7-0.8 5.2-8.2 0.8-12.6 0.9-11.3 0.2-23.9-0.5-10.6-5.8-5.1-5.8-10 0-4.3 5.9-3.6 8.7-3.6z"></path>
      <path id="&lt;Compound Path&gt;" class="s6" d="m243.5 389.2c6.8 0 11.1 3.4 12.9 3.4 1.6 0 2-0.4 3.1-0.4 3 0 6.7 4.3 6.7 12 0 4-2.4 7.3-6.4 7.3-7.2 0-5.4-12.3-17.7-12.3-5.4 0-7.6 5-7.6 8.8 0 10.3 5.5 19 15.2 19 8.8 0 10.1-4.7 12.3-4.7 2 0 3 2.3 3 4.1 0 3-3.2 9.4-6.7 9.4-2.4 0-7.2 4-15.4 4-14.6 0-26.5-11.5-26.5-25.4 0-14.3 13.4-25.2 27.1-25.2z"></path>
      <path id="&lt;Compound Path&gt;" class="s6" d="m319.6 427.4c0 2.1 0.3 3.1 2.2 4.2 1.4 0.7 2.3 1.1 2.3 2.9 0 1.6-0.1 5.1-13.8 5.1-3 0-11.9-0.1-11.9-4.7-0.3-5.4 4.9 0.5 4.9-13.5 0-3.8-0.9-3.6-4.3-3.6-9.8 0-8.9 0.2-8.9 6.5 0 9.5 4.3 5.7 4.3 10.2 0 4.8-10.1 5.1-13.4 5.1-3.2 0-12.8-0.3-12.8-5 0-1.4 1-2.4 2.2-2.9 2.5-1.2 3.4-1 3.4-15.5 0-18.4-0.3-16.9-2.9-18.3-1-0.5-2.3-1.2-2.3-2.6 0-5.3 11.6-5.8 15.5-5.8 2.9 0 11 0.3 11 4.5 0 2.1-1.2 2.9-2.8 3.8-1.7 1-2.2 1.8-2.2 8 0 3.9 1.8 3.4 5.2 3.4h3.5c4.6 0 4.5-0.7 4.5-2.8 0-7.6-1.2-8.1-2.1-8.6-1.3-0.7-2.6-1.3-2.6-3.1 0-1.4-0.3-5.2 13.5-5.2 3.3 0 12.5 0 12.5 4.9 0 1.5-0.7 2.5-2.1 3.2-2.1 0.9-2.9 0.7-2.9 11.8z"></path>
      <path id="&lt;Compound Path&gt;" class="s6" d="m363.7 406.9c0.8 0.7 3 2.7 4.3 2.7 1.7 0 1.8-2.8 1.8-4 0-1.7-0.1-4.7-0.6-6.3-1-2.9-4.7-1.9-4.7-5.6 0-4.5 7.1-4.2 10-4.2 3.1 0 10.6-0.4 10.6 4.4 0 3.9-3.7 2.5-4.8 5.7-0.9 2.5-0.9 6.8-0.9 9.4v18c0 3.1 0.4 12.6-4.3 12.6-1.4 0-2.5-0.8-3.6-1.7l-21.4-19.2c-1-0.9-2.8-2.6-4.2-2.6-2.2 0-2.3 4.5-2.3 6 0 1.9 0.1 4.5 0.5 6.3 1.1 4.4 4.7 2.7 4.7 6.1 0 4.7-7.1 5.1-10.4 5.1-3.2 0-10.3-0.4-10.3-4.9 0-3.7 4-2.2 4.7-6.7 0.5-3 0.6-7.3 0.6-10.5 0-4.9 0-10-0.7-15-1.1-6.9-6.1-4.2-6.1-8.4 0-4.9 9.3-4.6 12.5-4.6 4.3 0 5 0.2 8.1 3z"></path>
      <path id="&lt;Compound Path&gt;" fill-rule="evenodd" class="s6" d="m387.8 414.4c0-14.8 11.7-25.2 26.9-25.2 19.1 0 26.5 16.9 26.5 25.8 0 15-13.2 24.8-27.4 24.8-14.6 0-26-10.7-26-25.4zm23.7-14.8c-3.9 0-5.8 4-5.8 7.4 0 5.9 4.1 22.5 11.6 22.5 4.2 0 6-3.7 6-7.4 0-6.4-3.7-22.5-11.8-22.5z"></path>
      <path id="&lt;Compound Path&gt;" class="s6" d="m450.6 438.8c-2.2 0-5.7 0.2-5.7-3 0-4.3 5.4-0.7 5.6-8.8 0.1-5 0.1-9.5 0.1-13.5 0-4.2-0.3-8.1-0.5-12-0.1-5.8-6.2-2.8-6.2-6.7 0-5.1 10.9-5.3 14.3-5.3 13.8 0.3 14.5 2.3 14.5 4.7 0 4-5.4 0.9-5.4 7.5v22c0 5 0.8 7.4 5.7 7.4 11.8 0 7.8-9.6 12.2-9.6 3.1 0 4.3 3.3 4.3 6 0 5.4-3.9 12.3-7.1 12.3-1.2 0-2.2-0.3-3.4-0.5-1.3-0.3-2.9-0.5-5.2-0.5z"></path>
      <path id="&lt;Compound Path&gt;" fill-rule="evenodd" class="s6" d="m490.7 414.4c0-14.8 11.7-25.2 26.9-25.2 19.1 0 26.4 16.9 26.4 25.8 0 15-13.1 24.8-27.3 24.8-14.6 0-26-10.7-26-25.4zm23.7-14.8c-3.9 0-5.9 4-5.9 7.4 0 5.9 4.2 22.5 11.7 22.5 4.2 0 6-3.7 6-7.4 0-6.4-3.7-22.5-11.8-22.5z"></path>
      <path id="&lt;Compound Path&gt;" class="s6" d="m578.2 429.7c2.4 0 4.2-1.8 4.2-4.3 0-5.8-7.3-0.2-7.3-6.5 0-5.1 10.5-5.4 14-5.4 13.1 0 13.8 3.6 13.8 5.6 0 1.8-1.5 3.1-3.1 3.4-1.8 0.2-2 0.5-2.5 2.3-2.7 10.2-12.5 15-22.3 15-14.7 0-27.5-10.2-27.5-25.5 0-14.7 12.4-25.1 27.2-25.1 6.1 0 9.5 1.9 11.3 1.9 1.2 0 3-1 4.3-1 4.3 0 6.8 7.1 6.8 10.6 0 3.4-1.7 6.9-5.5 6.9-6.8 0-6.8-9.7-16.3-9.7-6 0-9.9 5-9.9 12.4 0 14.3 8.3 19.4 12.8 19.4z"></path>
      <path id="&lt;Compound Path&gt;" class="s6" d="m610.4 411.1c0-8.8-0.7-10.8-1.5-11.8-1.6-2-4.3-2.2-4.3-4.9 0-4.9 14.2-4.9 15.6-4.9 4.1 0 12.7 0.1 12.7 4.8 0 2.5-2.7 2.4-4.3 4.2-1.3 1.5-1.4 7.7-1.4 12.6v6.9c0 12.3 0.9 12 2.3 12.9 1.7 1 3.4 1.3 3.4 3.5 0 2.1-0.7 5.2-15.9 5.2-2.9 0-11.6-0.1-11.6-4.5 0-2.2 2.3-2.6 3.5-3.9 0.8-1 1.5-3.5 1.5-13.2z"></path>
      <path id="&lt;Compound Path&gt;" class="s6" d="m663.4 390.2c9.3 0 10.7-1.4 11.8-1.4 3.9 0 5.6 6.8 5.6 9.9 0 2.3-0.9 5-3.6 5-5.5 0-1.1-6.7-14.2-6.7-7.7 0-7 1.4-7 9.4 0 4 0.2 4.1 4.5 4.1 5.2 0 1.3-7.7 6.2-7.7 4 0 4.3 7.9 4.3 10.6 0 2.8-0.5 11.2-4.6 11.2-4.3 0 0-7.3-7-7.3-3 0-2.9 2.6-2.9 4.8 0 10.1 0.7 9.7 8 9.7 14.2 0 10.2-9.8 15.9-9.8 2.2 0 3.3 2.5 3.3 4.4 0 4.7-3.7 13.2-6.5 13.2-0.5 0-1.6-0.2-3.1-0.4-1.5-0.2-3.4-0.4-5.8-0.4h-28.5c-4.6 0-4.7-2-4.7-2.9 0-3.9 4.8-0.8 5.2-8.2 0.9-12.6 0.9-11.3 0.3-23.9-0.5-10.6-5.8-5.1-5.8-10 0-4.3 5.8-3.6 8.7-3.6z"></path>
      <path id="&lt;Compound Path&gt;" class="s6" d="m687 405.4c0-7.2 6.9-16.2 20.4-16.2 4.4 0 9.4 2.1 10.4 2.1 1 0 2-0.9 3.4-0.9 2.4 0 7.7 5.2 7.7 11 0 2.3-1.6 4.7-4.1 4.7-4.7 0-7.4-7.9-14.6-7.9-2.1 0-4.4 1-4.4 3.5 0 5.4 9.5 4 17.5 9.3 4.3 2.9 6.5 6.3 6.5 11.5 0 8.2-6.7 17.3-22.9 17.3-4.5 0-12.4-1.2-16.3-3.3-3.4-1.9-5-9.2-5-12.8 0-1.9 0.9-3.7 3-3.7 4.9 0 4.1 11 16.8 11 1.5 0 5.4-0.8 5.4-3.4 0-5-9.5-3.7-17.2-9.9-3.9-3.1-6.6-7.3-6.6-12.3z"></path>
    </g>
    <text id=" " style="transform: matrix(2,0,0,2,756.385,-19.303)">
		</text>
  </g>
  <g id="Layer 8">
    <text id="™ " style="transform: matrix(2,0,0,2,731.671,584.525)">
      <tspan x="0" y="0" class="t7">™
</tspan>
    </text>
  </g>
</svg>
